<?xml version="1.0" encoding="utf-8"?>
<!-- Generator: Adobe Illustrator 16.0.0, SVG Export Plug-In . SVG Version: 6.00 Build 0)  -->
<!DOCTYPE svg PUBLIC "-//W3C//DTD SVG 1.1//EN" "http://www.w3.org/Graphics/SVG/1.1/DTD/svg11.dtd">
<svg version="1.1" id="Layer_1" xmlns="http://www.w3.org/2000/svg" xmlns:xlink="http://www.w3.org/1999/xlink" x="0px" y="0px"
	 width="70.925px" height="74.592px" viewBox="0 0 70.925 74.592" enable-background="new 0 0 70.925 74.592" xml:space="preserve">
<g>
	<circle fill="#FEA510" cx="66.645" cy="37.297" r="4.28"/>
	<circle fill="#FEA510" cx="56.249" cy="37.297" r="4.28"/>
	<circle fill="#FEA510" cx="56.249" cy="48.303" r="4.279"/>
	<circle fill="#FEA510" cx="45.855" cy="4.28" r="4.28"/>
	<circle fill="#FEA510" cx="45.855" cy="15.287" r="4.279"/>
	<circle fill="#FEA510" cx="45.855" cy="26.291" r="4.279"/>
	<circle fill="#FEA510" cx="45.855" cy="37.297" r="4.28"/>
	<circle fill="#FEA510" cx="45.855" cy="48.303" r="4.279"/>
	<circle fill="#FEA510" cx="45.855" cy="59.308" r="4.28"/>
	<circle fill="#FEA510" cx="35.463" cy="4.28" r="4.28"/>
	<circle fill="#FEA510" cx="35.463" cy="15.287" r="4.279"/>
	<circle fill="#FEA510" cx="35.463" cy="26.291" r="4.279"/>
	<circle fill="#FEA510" cx="35.463" cy="37.297" r="4.28"/>
	<circle fill="#FEA510" cx="35.463" cy="48.303" r="4.279"/>
	<circle fill="#FEA510" cx="35.463" cy="59.308" r="4.28"/>
	<circle fill="#FEA510" cx="35.463" cy="70.313" r="4.279"/>
	<circle fill="#FEA510" cx="25.067" cy="4.28" r="4.28"/>
	<circle fill="#FEA510" cx="25.067" cy="15.287" r="4.279"/>
	<circle fill="#FEA510" cx="25.067" cy="26.291" r="4.279"/>
	<circle fill="#FEA510" cx="25.067" cy="37.297" r="4.28"/>
	<circle fill="#FEA510" cx="25.067" cy="48.303" r="4.279"/>
	<circle fill="#FEA510" cx="25.067" cy="59.308" r="4.28"/>
	<circle fill="#FEA510" cx="14.674" cy="37.297" r="4.28"/>
	<circle fill="#FEA510" cx="14.674" cy="48.303" r="4.279"/>
	<circle fill="#FEA510" cx="4.279" cy="37.297" r="4.28"/>
</g>
</svg>
