<?xml version="1.0" encoding="utf-8"?>
<!-- Generator: Adobe Illustrator 16.0.0, SVG Export Plug-In . SVG Version: 6.00 Build 0)  -->
<!DOCTYPE svg PUBLIC "-//W3C//DTD SVG 1.1//EN" "http://www.w3.org/Graphics/SVG/1.1/DTD/svg11.dtd">
<svg version="1.1" id="Layer_1" xmlns="http://www.w3.org/2000/svg" xmlns:xlink="http://www.w3.org/1999/xlink" x="0px" y="0px"
	 width="130.886px" height="41.477px" viewBox="0 0 130.886 41.477" enable-background="new 0 0 130.886 41.477"
	 xml:space="preserve">
<path fill-rule="evenodd" clip-rule="evenodd" fill="#FEA510" stroke="#FFFFFF" stroke-miterlimit="10" d="M65.051,29.564
	c-5.236,2.627-10.719,4.729-16.336,6.383c-9.303,2.738-18.563,7.189-28.437,4.893c-3.052-0.714-6.47-1.566-9.207-3.152
	c-1.355-0.783-2.809-1.594-4.003-2.613c-2.687-2.285-5.128-4.861-6.483-8.248c-0.662-1.661-0.763-3.316-0.302-5.059
	c0.607-2.281,1.218-4.519,2.663-6.484c0.71-0.964,1.438-1.879,2.39-2.563c3.918-2.822,8.019-5.22,12.857-6.225
	c2.608-0.541,5.079-0.341,7.44,0.641C27.882,8.069,30,9.33,32.157,10.479c2.047,1.091,2.557,3.214,3.258,5.146
	c0.278,0.765-0.19,1.569-0.818,2.211c-0.5,0.003-1.022,0.007-1.493,0.011c-0.153-0.234-0.338-0.385-0.33-0.527
	c0.151-3.186-1.449-5.052-4.368-6.06c-1.881-0.647-3.748-1.303-5.685-1.808c-3.652-0.957-7.008-0.222-10.263,1.358
	c-4.557,2.21-6.867,6.054-7.494,10.936c-0.356,2.777,0.283,5.326,2.086,7.64c2.505,3.211,5.747,5.293,9.519,6.485
	c1.974,0.625,3.989,1.127,6.038,1.425c3.037,0.437,6.208,0.089,9.216-0.398c3.981-0.643,7.884-1.77,11.776-2.637
	c4.314-0.967,8.053-3.078,12.076-4.822c1.981-0.86,3.858-1.963,5.823-2.977c-0.024-1.335-0.92-2.059-1.593-2.839
	c-1.627-1.886-2.714-4.042-3.599-6.343c-1.309-3.389-1.311-6.819,0.072-10.091c1.491-3.519,3.784-6.464,7.925-7.072
	c4.101-0.597,6.127,1.105,7.656,4.216c0.699,1.426,0.088,3.432-1.163,4.42c-0.598,0.474-1.561,0.386-1.845-0.348
	c-0.255-0.664,0.422-1.54,0.461-2.204c0.07-1.157-0.293-2.287-1.447-2.773c-1.935-0.815-3.817-0.895-5.662,0.432
	c-3.255,2.34-4.515,5.391-4.146,9.403c0.384,4.183,2.069,7.64,4.861,10.656c0.299,0.321,0.676,0.565,1.068,0.893
	c4.001-1.86,7.874-3.805,11.499-6.223c0.829-0.555,1.653-1.124,2.524-1.604c3.637-1.999,7.113-4.281,10.76-6.271
	c3.225-1.76,6.17-3.737,9.691-4.887c2.666-0.87,5.308-1.884,8.042-2.46c2.103-0.44,4.335-0.463,6.501-0.378
	c3.071,0.123,6.148,0.419,9.104,1.407c2.567,0.857,4.911,2.28,6.392,4.419c2.516,3.633,3.17,7.711,0.875,11.796
	c-0.743,1.324-1.675,2.617-2.778,3.651c-2.571,2.414-5.264,4.706-7.979,6.961c-1.892,1.574-4.104,2.631-6.361,3.614
	c-2.665,1.158-5.376,2.161-8.154,3.004c-1.563,0.477-3.181,0.644-4.779,0.933c-3.718,0.677-7.379,0.451-11.087,0.061
	c-3.44-0.357-6.76-1.097-10.027-2.235c-4.413-1.542-8.407-3.794-12.186-6.494C65.835,29.902,65.486,29.784,65.051,29.564z
	 M68.089,28.043c0.558,0.369,0.961,0.72,1.431,0.931c1.979,0.896,3.955,1.801,5.975,2.599c1.002,0.396,2.08,0.614,3.144,0.818
	c5.819,1.123,11.698,1.229,17.592,0.94c0.988-0.05,1.979-0.19,2.955-0.381c3.019-0.594,6.015-1.309,9.045-1.838
	c4.802-0.847,9.146-2.824,13.313-5.243c0.612-0.358,1.33-0.789,1.642-1.374c1.205-2.284,2.724-4.392,2.863-7.2
	c0.134-2.777-0.171-5.116-2.371-7.106c-2.584-2.34-5.204-4.489-8.813-4.946c-0.53-0.069-1.078-0.196-1.593-0.121
	c-2.966,0.417-5.873,1.05-8.593,2.377c-2.273,1.107-4.53,2.266-6.869,3.23c-1.68,0.69-3.228,1.574-4.72,2.574
	c-0.749,0.502-1.416,1.14-2.192,1.59c-2.026,1.183-4.185,2.159-6.121,3.467c-2.248,1.522-4.669,2.703-7.031,3.996
	c-1.106,0.607-2.253,1.148-3.339,1.798C72.392,25.352,70.411,26.606,68.089,28.043z"/>
</svg>
