<?xml version="1.0" encoding="utf-8"?>
<!-- Generator: Adobe Illustrator 16.0.0, SVG Export Plug-In . SVG Version: 6.00 Build 0)  -->
<!DOCTYPE svg PUBLIC "-//W3C//DTD SVG 1.1//EN" "http://www.w3.org/Graphics/SVG/1.1/DTD/svg11.dtd">
<svg version="1.1" id="Layer_1" xmlns="http://www.w3.org/2000/svg" xmlns:xlink="http://www.w3.org/1999/xlink" x="0px" y="0px"
	 width="74.56px" height="37.356px" viewBox="0 0 74.56 37.356" enable-background="new 0 0 74.56 37.356" xml:space="preserve">
<path fill-rule="evenodd" clip-rule="evenodd" fill="#FEA510" d="M33.771,13.93c0.999-0.667,1.971-1.324,2.808-2.24
	c-3.713-4.655-10.293-7.717-16.229-8.034c-2.079-0.111-3.902,0.677-5.845,1.275C11.521,5.858,9.218,7.67,7.153,9.962
	c-1.274,1.416-3.593,6.311-5.921,4.483C-3.506,10.717,6.755,3.631,9.531,2.299c1.858-0.888,4.018-1.293,5.996-1.704
	c2.357-0.491,4.425-0.344,6.723,0c5.816,0.866,11.054,3.662,16.061,6.704c0.576,0.352,1.209,0.609,1.871,0.939
	c1.18-0.85,2.307-1.642,3.413-2.465c4.675-3.478,11.081-5.704,16.928-5.772c3.231-0.037,6.542,1.158,9.284,2.808
	c3.722,2.242,5.722,7.495,4.285,11.716c-1.536,4.512-8.6,6.479-12.844,6.43c-6.26-0.077-11.85-1.383-17.265-4.795
	c-0.892-0.557-2.707-2.683-3.733-2.722c-0.588-0.023-1.41,0.832-1.813,1.18c-0.755,0.646-1.438,1.438-2.09,2.197
	c0.292,0.265,0.781,0.318,1.131,0.505c2.271,1.203,4.308,2.7,5.937,4.669c0.368,0.445,0.633,0.941,0.92,1.439
	c0.717,1.261,1.398,2.943,1.201,4.425c-0.328,2.466-1.488,5.092-3.23,6.888c-2.523,2.604-5.37,3.148-8.648,2.142
	c-2.465-0.76-3.973-3.233-3.684-5.792c0.172-1.528,1.205-2.445,2.364-3.246c0.54-0.373,1.443-0.131,1.828,0.461
	c0.308,0.475,0.209,0.937-0.178,1.341c-0.136,0.141-0.262,0.297-0.395,0.442c-0.62,0.693-1.118,1.484-0.722,2.418
	c0.519,1.225,2.173,2.205,3.406,1.948c2.289-0.477,4.283-1.525,5.666-3.504c0.979-1.404,0.805-3.479,0.318-5.036
	c-0.906-2.888-3.813-4.931-6.381-6.193c-0.67-0.335-1.339-0.664-2.108-0.624c-0.32,0.754-1.069,1.436-1.613,2.045
	c-2.193,2.462-5.014,4.507-7.938,6.031c-2.764,1.437-5.668,2.352-8.845,1.853c-1.869-0.296-3.725-1.088-4.742-2.761
	c-0.659-1.078-1.28-3.661-1.207-4.904c0.033-0.585,0.309-1.486,0.516-2.075c1.123-3.213,4.045-5.244,7.131-6.362
	c4.035-1.458,8.143-2.046,12.017,0.078c0.25,0.14,3.244,1.913,3.238,1.915C32.809,14.571,33.293,14.248,33.771,13.93z M43.741,9.979
	c0.507,0.483,0.748,0.822,1.076,1.014c3.499,2.046,7.052,3.862,11.12,4.689c4.275,0.865,8.24,0.328,12.145-1.421
	c2.951-1.324,3.387-4.718,1.19-6.904c-1.739-1.732-4.403-2.731-6.738-3.347c-3.88-1.021-7.878-0.627-11.589,0.849
	C50.236,5.141,43.143,9.409,43.741,9.979z M30.18,17.214c-0.948-0.367-1.653-0.696-2.392-0.905c-2.73-0.779-5.532-0.531-8.255-0.173
	c-2.155,0.285-4.101,1.441-5.638,3.075c-1.558,1.661-1.603,3.661-0.212,5.696c1.016,1.478,2.789,1.959,4.771,1.343
	C23.403,24.712,26.864,21.285,30.18,17.214z"/>
</svg>
