<?xml version="1.0" encoding="utf-8"?>
<!-- Generator: Adobe Illustrator 16.0.0, SVG Export Plug-In . SVG Version: 6.00 Build 0)  -->
<!DOCTYPE svg PUBLIC "-//W3C//DTD SVG 1.1//EN" "http://www.w3.org/Graphics/SVG/1.1/DTD/svg11.dtd">
<svg version="1.1" id="Layer_1" xmlns="http://www.w3.org/2000/svg" xmlns:xlink="http://www.w3.org/1999/xlink" x="0px" y="0px"
	 width="503.859px" height="359.938px" viewBox="0 0 503.859 359.938" enable-background="new 0 0 503.859 359.938"
	 xml:space="preserve">
<g>
	<path fill-rule="evenodd" clip-rule="evenodd" fill="#FEA510" d="M0.005,359.938C0,239.979,0,120.021,0,0
		c167.9,0,335.811,0,503.855,0c0,119.938,0,239.938,0.004,359.938C335.912,359.938,167.961,359.938,0.005,359.938z M138.759,132.99
		c-0.079,0.382-0.158,0.765-0.237,1.146c1.007,0.837,1.966,1.741,3.03,2.499c4.62,3.289,6.935,7.289,6.597,13.406
		c-0.568,10.292,0.063,20.646-0.225,30.961c-0.229,8.206-1.079,16.394-1.653,24.595c5.182,0,10.412,0,15.194,0
		c-0.593-8.235-1.383-16.139-1.669-24.06c-0.285-7.859-0.063-15.736-0.063-23.605c0.519-0.188,1.037-0.374,1.555-0.562
		c13.025,15.243,26.047,30.488,39.08,45.725c0.818,0.956,1.668,2.585,2.58,2.641c4.517,0.274,9.059,0.125,12.831,0.125
		c-1.784-24.671-1.52-48.513-0.139-72.631c-4.743,0-9.489,0-13.856,0c0.411,8.887,0.964,17.491,1.162,26.104
		c0.199,8.683,0.044,17.373,0.044,26.06c-0.512,0.173-1.025,0.346-1.537,0.518c-14.604-16.99-29.202-33.987-43.836-50.952
		c-0.693-0.804-1.703-1.853-2.595-1.881C149.604,132.902,144.18,132.99,138.759,132.99z M83.592,163.636
		c-12.727,0-23.988,0-36.327,0c0.633-10.342,1.245-20.323,1.863-30.424c-5.238,0-10.994,0-16.293,0
		c3.343,24.31,3.232,48.358,0.086,72.354c5.476,0,11.203,0,16.184,0c-0.594-10.815-1.169-21.303-1.774-32.322
		c11.751,0,22.22-0.113,32.678,0.177c1.028,0.028,2.868,2.551,2.836,3.88c-0.226,9.406-0.841,18.803-1.333,28.2
		c4.73,0,10.559,0,15.862,0c-2.518-24.236-2.544-48.037,0-72.158c-5.46,0-11.26,0-16.18,0
		C81.999,143.51,82.778,153.348,83.592,163.636z M229.883,205.924c6.483,0,13.27-0.026,20.056,0.007
		c8.328,0.042,16.098-2.051,23.413-5.964c20.127-10.769,24.466-36.37,8.654-52.829c-14.604-15.2-33.564-14.418-52.55-14.068
		C233.395,157.443,232.875,181.185,229.883,205.924z M374.21,205.724c-13.137-24.21-26.205-48.295-39.672-73.113
		c-14.499,24.901-28.545,49.026-42.471,72.943c5.847,0,12.07,0,17.01,0c2.902-6.673,5.188-12.688,8.174-18.333
		c0.903-1.707,3.695-3.263,5.711-3.381c6.968-0.407,13.978-0.008,20.963-0.211c3.153-0.093,4.905,1.087,6.047,3.926
		c2.388,5.94,4.948,11.812,7.631,18.169C362.84,205.724,368.794,205.724,374.21,205.724z M363.316,133.257
		c4.026,7.688,8.251,15.022,11.796,22.674c7.066,15.249,13.862,30.627,20.521,46.059c1.359,3.151,3.063,4.25,6.355,4.015
		c2.961-0.212,5.411,0.154,6.985-3.644c3.501-8.443,7.685-16.613,11.773-24.804c6.386-12.789,12.888-25.521,19.436-38.229
		c1-1.94,2.507-3.621,4.2-6.018c-7.37,0-13.746,0-18.981,0c-1.701,6.011-2.634,11.608-4.845,16.646
		c-4.95,11.275-10.527,22.276-15.881,33.373c-0.523,1.086-1.267,2.065-2.479,4.009c-6.774-18.662-17.948-34.486-20.885-54.08
		C375.606,133.257,369.354,133.257,363.316,133.257z M452.711,133.188c2.412,24.583,2.662,48.464-0.282,72.349
		c5.696,0,11.393,0,16.658,0c-3.116-24.291-3.209-48.186-0.074-72.349C463.618,133.188,458.033,133.188,452.711,133.188z
		 M128.927,205.696c-2.855-24.504-3.033-48.396,0.025-72.334c-5.449,0-11.116,0-16.229,0c2.459,24.321,2.598,48.227-0.328,72.334
		C118.007,205.696,123.606,205.696,128.927,205.696z"/>
	<path fill-rule="evenodd" clip-rule="evenodd" fill="#FCEDCE" d="M138.759,132.99c5.421,0,10.846-0.088,16.261,0.088
		c0.892,0.028,1.901,1.077,2.595,1.881c14.635,16.965,29.232,33.962,43.836,50.952c0.512-0.172,1.025-0.345,1.537-0.518
		c0-8.687,0.155-17.377-0.044-26.06c-0.197-8.612-0.751-17.217-1.162-26.104c4.368,0,9.114,0,13.856,0
		c-1.381,24.118-1.645,47.96,0.139,72.631c-3.772,0-8.314,0.149-12.831-0.125c-0.912-0.056-1.762-1.685-2.58-2.641
		c-13.033-15.236-26.055-30.481-39.08-45.725c-0.518,0.188-1.036,0.374-1.555,0.562c0,7.869-0.222,15.746,0.063,23.605
		c0.287,7.921,1.077,15.824,1.669,24.06c-4.783,0-10.013,0-15.194,0c0.575-8.201,1.424-16.389,1.653-24.595
		c0.289-10.315-0.343-20.669,0.225-30.961c0.338-6.117-1.977-10.117-6.597-13.406c-1.064-0.758-2.023-1.662-3.03-2.499
		C138.601,133.755,138.68,133.372,138.759,132.99z"/>
	<path fill-rule="evenodd" clip-rule="evenodd" fill="#FBEDCE" d="M83.592,163.636c-0.814-10.288-1.593-20.126-2.398-30.294
		c4.92,0,10.72,0,16.18,0c-2.544,24.121-2.517,47.922,0,72.158c-5.303,0-11.132,0-15.862,0c0.491-9.397,1.107-18.794,1.333-28.2
		c0.032-1.329-1.808-3.852-2.836-3.88c-10.458-0.29-20.927-0.177-32.678-0.177c0.605,11.02,1.181,21.507,1.774,32.322
		c-4.981,0-10.708,0-16.184,0c3.146-23.995,3.256-48.044-0.086-72.354c5.299,0,11.055,0,16.293,0
		c-0.619,10.101-1.23,20.082-1.863,30.424C59.604,163.636,70.865,163.636,83.592,163.636z"/>
	<path fill-rule="evenodd" clip-rule="evenodd" fill="#FCEDCE" d="M229.883,205.924c2.992-24.739,3.512-48.48-0.427-72.854
		c18.985-0.35,37.946-1.132,52.55,14.068c15.812,16.459,11.473,42.061-8.654,52.829c-7.314,3.913-15.085,6.006-23.413,5.964
		C243.153,205.897,236.366,205.924,229.883,205.924z M245.069,198.247c18.708-0.311,32.677-13.956,31.843-30.188
		c-0.9-17.519-17.197-27.963-31.843-27.302C245.069,159.804,245.069,178.868,245.069,198.247z"/>
	<path fill-rule="evenodd" clip-rule="evenodd" fill="#FCEDCE" d="M374.21,205.724c-5.416,0-11.37,0-16.607,0
		c-2.683-6.357-5.243-12.229-7.631-18.169c-1.142-2.839-2.894-4.019-6.047-3.926c-6.985,0.203-13.995-0.196-20.963,0.211
		c-2.016,0.118-4.808,1.674-5.711,3.381c-2.986,5.645-5.271,11.66-8.174,18.333c-4.939,0-11.163,0-17.01,0
		c13.926-23.917,27.972-48.042,42.471-72.943C348.005,157.429,361.073,181.514,374.21,205.724z M343.371,174.636
		c-3.158-6.394-5.965-12.072-9.296-18.814c-3.677,6.797-6.763,12.502-10.177,18.814
		C330.639,174.636,336.521,174.636,343.371,174.636z"/>
	<path fill-rule="evenodd" clip-rule="evenodd" fill="#FCEDCE" d="M363.316,133.257c6.037,0,12.29,0,17.996,0
		c2.937,19.594,14.11,35.418,20.885,54.08c1.212-1.943,1.955-2.923,2.479-4.009c5.354-11.097,10.931-22.098,15.881-33.373
		c2.211-5.037,3.144-10.635,4.845-16.646c5.235,0,11.611,0,18.981,0c-1.693,2.396-3.2,4.077-4.2,6.018
		c-6.548,12.708-13.05,25.44-19.436,38.229c-4.089,8.19-8.272,16.36-11.773,24.804c-1.574,3.798-4.024,3.432-6.985,3.644
		c-3.293,0.235-4.996-0.863-6.355-4.015c-6.658-15.432-13.454-30.81-20.521-46.059C371.567,148.279,367.343,140.944,363.316,133.257
		z"/>
	<path fill-rule="evenodd" clip-rule="evenodd" fill="#FCEDCE" d="M452.711,133.188c5.322,0,10.907,0,16.302,0
		c-3.135,24.163-3.042,48.058,0.074,72.349c-5.266,0-10.962,0-16.661,0.002C455.373,181.651,455.123,157.771,452.711,133.188z"/>
	<path fill-rule="evenodd" clip-rule="evenodd" fill="#FCEDCE" d="M128.927,205.696c-5.321,0-10.92,0-16.532,0
		c2.926-24.107,2.788-48.013,0.328-72.334c5.113,0,10.78,0,16.229,0C125.895,157.301,126.072,181.192,128.927,205.696z"/>
	<path fill-rule="evenodd" clip-rule="evenodd" fill="#FEA510" d="M245.069,198.247c0-19.379,0-38.443,0-57.49
		c14.646-0.661,30.943,9.783,31.843,27.302C277.746,184.291,263.776,197.937,245.069,198.247z"/>
	<path fill-rule="evenodd" clip-rule="evenodd" fill="#FCA511" d="M343.371,174.636c-6.85,0-12.732,0-19.473,0
		c3.414-6.313,6.5-12.018,10.177-18.814C337.406,162.563,340.213,168.242,343.371,174.636z"/>
</g>
</svg>
